{
  "accessors": [
    {
      "bufferView": 2,
      "componentType": 5126,
      "count": 98,
      "max": [
        1.0182991027832031,
        0.703873872756958,
        0.8802809715270996
      ],
      "min": [
        -1.0182991027832031,
        -0.6971490383148193,
        -0.8027772307395935
      ],
      "type": "VEC3"
    },
    {
      "bufferView": 2,
      "byteOffset": 1176,
      "componentType": 5126,
      "count": 98,
      "max": [
        0.9671024084091187,
        1.0,
        0.9594823122024536
      ],
      "min": [
        -0.9671024084091187,
        -1.0,
        -0.9988502264022827
      ],
      "type": "VEC3"
    },
    {
      "bufferView": 1,
      "componentType": 5126,
      "count": 98,
      "max": [
        0.48608991503715515,
        0.768615186214447
      ],
      "min": [
        0.031070472672581673,
        0.31818193197250366
      ],
      "type": "VEC2"
    },
    {
      "bufferView": 0,
      "componentType": 5125,
      "count": 180,
      "type": "SCALAR"
    },
    {
      "bufferView": 2,
      "byteOffset": 2352,
      "componentType": 5126,
      "count": 96,
      "max": [
        1.0,
        0.10038542747497559,
        1.0
      ],
      "min": [
        -1.0,
        -0.11143824458122253,
        -1.0
      ],
      "type": "VEC3"
    },
    {
      "bufferView": 2,
      "byteOffset": 3504,
      "componentType": 5126,
      "count": 96,
      "max": [
        0.9238795638084412,
        1.0,
        0.9238795638084412
      ],
      "min": [
        -0.9238795638084412,
        -1.0,
        -0.9238795638084412
      ],
      "type": "VEC3"
    },
    {
      "bufferView": 1,
      "byteOffset": 784,
      "componentType": 5126,
      "count": 96,
      "max": [
        0.1807352751493454,
        0.15268102288246155
      ],
      "min": [
        0.008210706524550915,
        0.005622357130050659
      ],
      "type": "VEC2"
    },
    {
      "bufferView": 0,
      "byteOffset": 720,
      "componentType": 5125,
      "count": 180,
      "type": "SCALAR"
    },
    {
      "bufferView": 2,
      "byteOffset": 4656,
      "componentType": 5126,
      "count": 32,
      "max": [
        0.25032198429107666,
        0.15200212597846985,
        0.19299791753292084
      ],
      "min": [
        -0.31399810314178467,
        -0.16136713325977325,
        -0.15142962336540222
      ],
      "type": "VEC3"
    },
    {
      "bufferView": 2,
      "byteOffset": 5040,
      "componentType": 5126,
      "count": 32,
      "max": [
        0.8965172171592712,
        0.9922260046005249,
        0.9239650964736938
      ],
      "min": [
        -0.8624701499938965,
        -0.962415337562561,
        -0.9898565411567688
      ],
      "type": "VEC3"
    },
    {
      "bufferView": 1,
      "byteOffset": 1552,
      "componentType": 5126,
      "count": 32,
      "max": [
        0.14327961206436157,
        0.14899460971355438
      ],
      "min": [
        0.01811336725950241,
        0.022323181852698326
      ],
      "type": "VEC2"
    },
    {
      "bufferView": 0,
      "byteOffset": 1440,
      "componentType": 5125,
      "count": 42,
      "type": "SCALAR"
    },
    {
      "bufferView": 2,
      "byteOffset": 5424,
      "componentType": 5126,
      "count": 168,
      "max": [
        0.4424094259738922,
        0.14589829742908478,
        0.4113093614578247
      ],
      "min": [
        -0.4424094259738922,
        -0.1585816740989685,
        -0.4113093614578247
      ],
      "type": "VEC3"
    },
    {
      "bufferView": 2,
      "byteOffset": 7440,
      "componentType": 5126,
      "count": 168,
      "max": [
        1.0,
        1.0,
        0.994682252407074
      ],
      "min": [
        -1.0,
        -1.0,
        -0.994682252407074
      ],
      "type": "VEC3"
    },
    {
      "bufferView": 1,
      "byteOffset": 1808,
      "componentType": 5126,
      "count": 168,
      "max": [
        0.5062015056610107,
        0.9823564291000366
      ],
      "min": [
        0.014201183803379536,
        0.19599997997283936
      ],
      "type": "VEC2"
    },
    {
      "bufferView": 0,
      "byteOffset": 1608,
      "componentType": 5125,
      "count": 312,
      "type": "SCALAR"
    },
    {
      "bufferView": 2,
      "byteOffset": 9456,
      "componentType": 5126,
      "count": 232,
      "max": [
        1.2547461986541748,
        0.36791080236434937,
        0.37200552225112915
      ],
      "min": [
        -1.2534286975860596,
        -0.2878313660621643,
        -0.36899733543395996
      ],
      "type": "VEC3"
    },
    {
      "bufferView": 2,
      "byteOffset": 12240,
      "componentType": 5126,
      "count": 232,
      "max": [
        0.9853484630584717,
        0.9969043135643005,
        0.9988611340522766
      ],
      "min": [
        -0.9853484034538269,
        -1.0,
        -0.9988319873809814
      ],
      "type": "VEC3"
    },
    {
      "bufferView": 1,
      "byteOffset": 3152,
      "componentType": 5126,
      "count": 232,
      "max": [
        0.3458893895149231,
        0.9114344120025635
      ],
      "min": [
        0.0889277309179306,
        0.21531257033348083
      ],
      "type": "VEC2"
    },
    {
      "bufferView": 0,
      "byteOffset": 2856,
      "componentType": 5125,
      "count": 516,
      "type": "SCALAR"
    },
    {
      "bufferView": 2,
      "byteOffset": 15024,
      "componentType": 5126,
      "count": 41,
      "max": [
        2.0069375038146973,
        4.3744609001805657e-07,
        2.0069375038146973
      ],
      "min": [
        -2.017727851867676,
        -4.42520246224376e-07,
        -2.0069384574890137
      ],
      "type": "VEC3"
    },
    {
      "bufferView": 2,
      "byteOffset": 15516,
      "componentType": 5126,
      "count": 41,
      "max": [
        2.5807602810346e-07,
        1.0,
        2.4717033397791965e-07
      ],
      "min": [
        -1.7905620097735664e-07,
        1.0,
        -5.351395202524145e-07
      ],
      "type": "VEC3"
    },
    {
      "bufferView": 1,
      "byteOffset": 5008,
      "componentType": 5126,
      "count": 41,
      "max": [
        0.9471403360366821,
        0.151837557554245
      ],
      "min": [
        0.18660306930541992,
        0.008586928248405457
      ],
      "type": "VEC2"
    },
    {
      "bufferView": 0,
      "byteOffset": 4920,
      "componentType": 5125,
      "count": 75,
      "type": "SCALAR"
    }
  ],
  "asset": {
    "extras": {
      "author": "Cali&E (https://sketchfab.com/caliAndE)",
      "license": "SKETCHFAB Standard (https://sketchfab.com/licenses)",
      "source": "https://sketchfab.com/3d-models/low-poly-red-rotary-phone-e6e74f41aa7c42a492cc94e3e35609c6",
      "title": "Low Poly Red Rotary Phone"
    },
    "generator": "Sketchfab-15.55.0",
    "version": "2.0"
  },
  "bufferViews": [
    {
      "buffer": 0,
      "byteLength": 5220,
      "name": "floatBufferViews",
      "target": 34963
    },
    {
      "buffer": 0,
      "byteLength": 5336,
      "byteOffset": 5220,
      "byteStride": 8,
      "name": "floatBufferViews",
      "target": 34962
    },
    {
      "buffer": 0,
      "byteLength": 16008,
      "byteOffset": 10556,
      "byteStride": 12,
      "name": "floatBufferViews",
      "target": 34962
    }
  ],
  "buffers": [
    {
      "byteLength": 26564,
      "uri": "scene.bin"
    }
  ],
  "images": [
    {
      "uri": "textures/peter_baseColor.png"
    }
  ],
  "materials": [
    {
      "doubleSided": true,
      "name": "peter",
      "pbrMetallicRoughness": {
        "baseColorTexture": {
          "index": 0
        },
        "roughnessFactor": 0.759091
      }
    }
  ],
  "meshes": [
    {
      "name": "Object_0",
      "primitives": [
        {
          "attributes": {
            "NORMAL": 1,
            "POSITION": 0,
            "TEXCOORD_0": 2
          },
          "indices": 3,
          "material": 0,
          "mode": 4
        }
      ]
    },
    {
      "name": "Object_1",
      "primitives": [
        {
          "attributes": {
            "NORMAL": 5,
            "POSITION": 4,
            "TEXCOORD_0": 6
          },
          "indices": 7,
          "material": 0,
          "mode": 4
        }
      ]
    },
    {
      "name": "Object_2",
      "primitives": [
        {
          "attributes": {
            "NORMAL": 9,
            "POSITION": 8,
            "TEXCOORD_0": 10
          },
          "indices": 11,
          "material": 0,
          "mode": 4
        }
      ]
    },
    {
      "name": "Object_3",
      "primitives": [
        {
          "attributes": {
            "NORMAL": 13,
            "POSITION": 12,
            "TEXCOORD_0": 14
          },
          "indices": 15,
          "material": 0,
          "mode": 4
        }
      ]
    },
    {
      "name": "Object_4",
      "primitives": [
        {
          "attributes": {
            "NORMAL": 17,
            "POSITION": 16,
            "TEXCOORD_0": 18
          },
          "indices": 19,
          "material": 0,
          "mode": 4
        }
      ]
    },
    {
      "name": "Object_5",
      "primitives": [
        {
          "attributes": {
            "NORMAL": 21,
            "POSITION": 20,
            "TEXCOORD_0": 22
          },
          "indices": 23,
          "material": 0,
          "mode": 4
        }
      ]
    }
  ],
  "nodes": [
    {
      "children": [
        1
      ],
      "matrix": [
        1.0,
        0.0,
        0.0,
        0.0,
        0.0,
        2.220446049250313e-16,
        -1.0,
        0.0,
        0.0,
        1.0,
        2.220446049250313e-16,
        0.0,
        0.0,
        0.0,
        0.0,
        1.0
      ],
      "name": "Sketchfab_model"
    },
    {
      "children": [
        2
      ],
      "name": "root"
    },
    {
      "children": [
        3,
        5,
        7,
        9,
        11,
        13
      ],
      "matrix": [
        1.0,
        0.0,
        0.0,
        0.0,
        0.0,
        2.220446049250313e-16,
        1.0,
        0.0,
        0.0,
        -1.0,
        2.220446049250313e-16,
        0.0,
        0.0,
        0.0,
        0.0,
        1.0
      ],
      "name": "GLTF_SceneRootNode"
    },
    {
      "children": [
        4
      ],
      "matrix": [
        1.3074427843093872,
        0.0,
        0.0,
        0.0,
        0.0,
        1.3074427843093872,
        0.0,
        0.0,
        0.0,
        0.0,
        1.2596887350082397,
        0.0,
        -0.07335948944091797,
        -0.2923297882080078,
        -0.5649347305297852,
        1.0
      ],
      "name": "Cube_0"
    },
    {
      "mesh": 0,
      "name": "Object_4"
    },
    {
      "children": [
        6
      ],
      "matrix": [
        0.5678106546401978,
        0.0,
        0.0,
        0.0,
        0.0,
        0.1388159814750355,
        0.530564682532269,
        0.0,
        0.0,
        -0.5480567757784044,
        0.143392581033879,
        0.0,
        -0.07336854934692383,
        -0.27616024017333984,
        0.45006346702575684,
        1.0
      ],
      "name": "Circle_1"
    },
    {
      "mesh": 1,
      "name": "Object_6"
    },
    {
      "children": [
        8
      ],
      "matrix": [
        0.5678106546401978,
        0.0,
        0.0,
        0.0,
        0.0,
        0.1388156652645691,
        0.5305647652649013,
        0.0,
        0.0,
        -0.5480569189022866,
        0.14339226948530237,
        0.0,
        0.44104671478271484,
        -0.4393196105957031,
        0.444591760635376,
        1.0
      ],
      "name": "Circle.001_2"
    },
    {
      "mesh": 2,
      "name": "Object_8"
    },
    {
      "children": [
        10
      ],
      "matrix": [
        1.4765781164169312,
        0.0,
        0.0,
        0.0,
        0.0,
        1.4765781164169312,
        0.0,
        0.0,
        0.0,
        0.0,
        1.422646403312683,
        0.0,
        -0.07335948944091797,
        0.7763485908508301,
        -0.5900166630744934,
        1.0
      ],
      "name": "Cube.001_3"
    },
    {
      "mesh": 3,
      "name": "Object_10"
    },
    {
      "children": [
        12
      ],
      "matrix": [
        1.3074427843093872,
        0.0,
        0.0,
        0.0,
        0.0,
        1.3074427843093872,
        0.0,
        0.0,
        0.0,
        0.0,
        1.2596887350082397,
        0.0,
        -0.07422113418579102,
        0.7967004776000977,
        -0.5922356843948364,
        1.0
      ],
      "name": "Cube.002_4"
    },
    {
      "mesh": 4,
      "name": "Object_12"
    },
    {
      "children": [
        14
      ],
      "matrix": [
        -0.26503336429595326,
        -3.5086801692717806e-08,
        4.544789683481301e-08,
        0.0,
        3.3888821980442297e-08,
        0.06479423187031536,
        0.24764822246620719,
        0.0,
        -4.5343366678225536e-08,
        0.25581293306794967,
        -0.06693043194723688,
        0.0,
        -0.07336664199829102,
        -0.273068904876709,
        0.4614478349685669,
        1.0
      ],
      "name": "Circle.002_5"
    },
    {
      "mesh": 5,
      "name": "Object_14"
    }
  ],
  "samplers": [
    {
      "magFilter": 9729,
      "minFilter": 9987,
      "wrapS": 10497,
      "wrapT": 10497
    }
  ],
  "scene": 0,
  "scenes": [
    {
      "name": "Sketchfab_Scene",
      "nodes": [
        0
      ]
    }
  ],
  "textures": [
    {
      "sampler": 0,
      "source": 0
    }
  ]
}
